<svg width="25" height="25" fill="none" xmlns="http://www.w3.org/2000/svg"><g clip-path="url(#clip0_11_2)" fill="#000"><path d="M20.265 19.146l-.65.433 1.53 2.296H3.855l1.823-2.735h9.924v-.78H5.47a.39.39 0 00-.325.173L2.8 22.05a.393.393 0 00-.066.216v1.172a.781.781 0 00.782.782h17.968a.781.781 0 00.782-.782v-1.172a.393.393 0 00-.066-.216l-1.935-2.903zm-16.75 4.291v-.78h17.97v.78H3.514zM20.313.781H4.688a1.175 1.175 0 00-1.172 1.172v10.156a1.175 1.175 0 001.171 1.172h5.47v1.563H8.593a.39.39 0 00-.39.39v1.563a.39.39 0 00.39.39h7.812a.391.391 0 00.39-.39v-1.563a.391.391 0 00-.39-.39h-1.562V13.28h5.469a1.176 1.176 0 001.171-1.172V1.953A1.176 1.176 0 0020.312.781zm-4.297 14.844v.781H8.984v-.781h7.032zm-5.078-.781V13.28h3.124v1.563h-3.124zm9.765-2.735a.39.39 0 01-.39.39H4.688a.39.39 0 01-.391-.39v-1.172h16.406v1.172zm0-1.953H4.297V1.953a.39.39 0 01.39-.39h15.625a.39.39 0 01.391.39v8.203z"/><path d="M18.36 11.328h.78v.781h-.78v-.781zM8.984 9.375h1.563a.39.39 0 00.39-.39v-.391h3.126v.39a.39.39 0 00.39.39h1.563a.39.39 0 00.39-.39V7.422a.39.39 0 00-.39-.39h-.391V4.686h.39a.39.39 0 00.391-.39V2.734a.39.39 0 00-.39-.39h-1.563a.39.39 0 00-.39.39v.39h-3.126v-.39a.39.39 0 00-.39-.39H8.984a.39.39 0 00-.39.39v1.563a.39.39 0 00.39.39h.391v2.344h-.39a.39.39 0 00-.391.39v1.563a.39.39 0 00.39.39zm6.641-.781h-.781v-.782h.781v.782zm-.781-5.47h.781v.782h-.781v-.781zm-5.469 0h.781v.782h-.781v-.781zm.781 1.563h.39a.39.39 0 00.392-.39v-.39h3.124v.39a.39.39 0 00.391.39h.39v2.344h-.39a.39.39 0 00-.39.39v.391h-3.126v-.39a.39.39 0 00-.39-.39h-.39V4.686zm-.781 3.125h.781v.782h-.781v-.782zm-.391 12.5h5.47v.782h-5.47v-.782zm14.403-5.922l-1.106-1.105a.386.386 0 00-.277-.113.38.38 0 00-.274.113l-5.25 5.25a.383.383 0 00-.093.152l-.278.828a.395.395 0 00.094.399l-.55.555.55.55.555-.55a.384.384 0 00.398.093l.828-.277a.385.385 0 00.153-.094l5.25-5.25a.39.39 0 000-.55zm-5.735 5.184l-.511.168-.215-.21.172-.513 3.8-3.8.555.55-3.8 3.805zm4.352-4.355l-.55-.551.55-.555.555.555-.555.55z"/></g><defs><clipPath id="clip0_11_2"><path fill="#fff" d="M0 0h25v25H0z"/></clipPath></defs></svg>