<svg width="21" height="25" viewBox="0 0 21 25" fill="none" xmlns="http://www.w3.org/2000/svg">
<path d="M17.7169 16.3328L16.2497 15.902L13.0575 13.817V13.3393C13.9817 12.6422 14.6164 11.5766 14.7343 10.3552C15.1978 10.2806 15.553 9.87777 15.553 9.39359V8.07987C15.553 8.07479 15.5524 8.06981 15.5522 8.06473V6.40057C15.7369 6.26835 15.854 6.05297 15.854 5.81136V4.28842L18.057 3.91317C18.4191 3.8515 18.6794 3.56395 18.705 3.1976C18.7305 2.83124 18.5126 2.51034 18.1626 2.39906L10.736 0.036853C10.5811 -0.0124634 10.4174 -0.0124146 10.2625 0.0368042L2.83579 2.39906C2.48583 2.51034 2.26787 2.83124 2.2934 3.19755C2.30961 3.43031 2.42084 3.63099 2.59252 3.76244V5.75399H2.57436C2.15615 5.75399 1.81591 6.09423 1.81591 6.51244V7.50101L1.32631 10.3746C1.24169 10.8717 1.62451 11.3266 2.12988 11.3266H3.78754C4.29179 11.3266 4.67592 10.8727 4.59111 10.3746L4.10151 7.50101V6.51244C4.10151 6.09423 3.76127 5.75399 3.34306 5.75399H3.32495V3.97845L5.14594 4.28861V5.81136C5.14594 6.05194 5.26259 6.26698 5.44638 6.3994L5.44707 8.08002V9.39359C5.44707 9.87782 5.80219 10.2806 6.26572 10.3552C6.38364 11.5759 7.01762 12.641 7.94096 13.3382V13.8182L4.74946 15.9028L3.28339 16.3331C1.71459 16.7935 0.606879 18.2338 0.606879 19.908V20.9995C0.606879 21.2017 0.770795 21.3657 0.97309 21.3657C1.17538 21.3657 1.3393 21.2017 1.3393 20.9995V19.908C1.3393 18.5885 2.22353 17.4074 3.48969 17.0358L4.85571 16.6348L10.313 19.8777C10.4238 19.9435 10.5704 19.947 10.6872 19.8777L16.1448 16.6347L17.5107 17.0356C18.7767 17.4073 19.6609 18.5884 19.6609 19.9078V23.4448C19.6609 23.8985 19.2918 24.2676 18.8381 24.2676H17.224V22.6891C17.224 22.4868 17.0601 22.3228 16.8578 22.3228C16.6556 22.3228 16.4916 22.4868 16.4916 22.6891V24.2676H4.50683V22.6891C4.50683 22.4868 4.34291 22.3228 4.14062 22.3228C3.93832 22.3228 3.77441 22.4868 3.77441 22.6891V24.2676H2.16196C1.70829 24.2676 1.3392 23.8985 1.3392 23.4448V22.7113C1.3392 22.5091 1.17529 22.3451 0.972992 22.3451C0.770697 22.3451 0.606781 22.509 0.606781 22.7113V23.4448C0.606781 24.3023 1.30439 24.9999 2.16191 24.9999H18.838C19.6956 24.9999 20.3932 24.3023 20.3932 23.4448V19.9078C20.3932 18.273 19.3232 16.8045 17.7169 16.3328ZM3.78749 10.5942H2.12988C2.07866 10.5942 2.03959 10.5484 2.04828 10.4976L2.49116 7.89818H3.42621L3.86909 10.4975C3.87773 10.5483 3.83896 10.5942 3.78749 10.5942ZM3.36909 6.51244V7.16581H2.54824V6.51244C2.54824 6.49803 2.55991 6.48636 2.57431 6.48636H3.34296C3.35742 6.48632 3.36909 6.49803 3.36909 6.51244ZM9.19028 18.2211L9.33603 18.4452L5.59731 16.2236L7.97041 14.6736C8.07802 15.9363 8.49423 17.1514 9.19028 18.2211ZM9.18774 16.6403C10.0497 16.7628 10.9498 16.7629 11.8123 16.6403C11.6456 17.0504 11.4402 17.4461 11.1958 17.8218L10.5 18.8913L9.80415 17.8218C9.55976 17.4461 9.35439 17.0504 9.18774 16.6403ZM11.8097 18.2211C12.5058 17.1514 12.922 15.9363 13.0295 14.6736L15.4026 16.2236L11.664 18.4452L11.8097 18.2211ZM13.9519 6.53695H14.8198V7.71361H14.389C14.1479 7.71361 13.9518 7.51752 13.9518 7.27645V6.53695H13.9519ZM3.05776 3.09701L10.4846 0.734705C10.4941 0.731677 10.5043 0.731628 10.514 0.734753L17.9408 3.09701C17.9561 3.10189 17.9771 3.10853 17.9745 3.14667C17.9718 3.18475 17.95 3.18842 17.9341 3.19115L15.4787 3.60936L14.5568 3.49535C14.3562 3.4705 14.1733 3.61317 14.1484 3.81386C14.1236 4.01459 14.2663 4.1974 14.4669 4.2222L15.1217 4.30321V5.80458L5.87832 5.80424V4.30316L9.66772 3.83427C10.2197 3.76605 10.7792 3.76605 11.3308 3.83427L12.765 4.01166C12.9657 4.03651 13.1486 3.89388 13.1734 3.6932C13.1983 3.49247 13.0557 3.30966 12.855 3.2848L11.4207 3.10741C10.8096 3.03177 10.1894 3.03177 9.57783 3.10741L5.5205 3.60946L3.0643 3.19115C3.04838 3.18842 3.02665 3.18475 3.02397 3.14667C3.02133 3.10853 3.04238 3.10184 3.05776 3.09701ZM6.17924 7.71361L6.17875 6.53695H7.04814V7.2765C7.04814 7.51752 6.85205 7.71366 6.61093 7.71366H6.17924V7.71361ZM6.98525 10.1669C6.9664 9.86874 6.71855 9.63514 6.42104 9.63514C6.28779 9.63514 6.17939 9.52675 6.17939 9.39354V8.44603H6.61093C7.25581 8.44603 7.78051 7.92137 7.78051 7.2765V6.53695H13.2194V7.2765C13.2194 7.92137 13.7441 8.44603 14.389 8.44603H14.8206V9.39354C14.8206 9.52675 14.7122 9.63514 14.5789 9.63514C14.2814 9.63514 14.0335 9.86874 14.0147 10.167C13.898 12.0161 12.3542 13.4645 10.4999 13.4645C8.6457 13.4645 7.1019 12.0161 6.98525 10.1669ZM10.5 14.1969C11.1513 14.1969 11.7704 14.048 12.3251 13.7832V14.0153C12.3251 14.6414 12.2406 15.259 12.078 15.8547C11.0828 16.0445 9.95761 16.0521 8.92202 15.8547C8.75937 15.2591 8.6749 14.6414 8.6749 14.0153C8.6749 14.0075 8.67382 13.9999 8.67334 13.9923C8.67324 13.9908 8.67338 13.9892 8.67329 13.9877V13.7825C9.22841 14.0477 9.84804 14.1969 10.5 14.1969Z" fill="black"/>
</svg>
